# Blender 3.1.0
# www.blender.org
mtllib mcsteve.mtl
o mcsteve
v -0.232062 -0.348126 0.116046
v -0.232062 0.348126 0.116046
v -0.232062 -0.348126 -0.116046
v -0.232062 0.348126 -0.116046
v 0.232062 -0.348126 0.116046
v 0.232062 0.348126 0.116046
v 0.232062 -0.348126 -0.116046
v 0.232062 0.348126 -0.116046
v -0.232062 0.348127 0.232062
v -0.232062 0.812297 0.232062
v -0.232062 0.348127 -0.232062
v -0.232062 0.812297 -0.232062
v 0.232062 0.348127 0.232062
v 0.232062 0.812297 0.232062
v 0.232062 0.348127 -0.232062
v 0.232062 0.812297 -0.232062
v 0.232075 -0.348126 0.116046
v 0.232075 0.348126 0.116046
v 0.232075 -0.348126 -0.116046
v 0.232075 0.348126 -0.116046
v 0.464087 -0.348126 0.116046
v 0.464087 0.348126 0.116046
v 0.464087 -0.348126 -0.116046
v 0.464087 0.348126 -0.116046
v -0.232075 -0.348126 0.116046
v -0.232075 0.348126 0.116046
v -0.232075 -0.348126 -0.116046
v -0.232075 0.348126 -0.116046
v -0.464087 -0.348126 0.116046
v -0.464087 0.348126 0.116046
v -0.464087 -0.348126 -0.116046
v -0.464087 0.348126 -0.116046
v 0.000321 -1.044627 0.116046
v 0.000321 -0.348375 0.116046
v 0.000321 -1.044627 -0.116046
v 0.000321 -0.348375 -0.116046
v 0.231767 -1.044627 0.116046
v 0.231767 -0.348375 0.116046
v 0.231767 -1.044627 -0.116046
v 0.231767 -0.348375 -0.116046
v -0.000321 -1.044627 0.116046
v -0.000321 -0.348375 0.116046
v -0.000321 -1.044627 -0.116046
v -0.000321 -0.348375 -0.116046
v -0.231767 -1.044627 0.116046
v -0.231767 -0.348375 0.116046
v -0.231767 -1.044627 -0.116046
v -0.231767 -0.348375 -0.116046
vn -1.0000 -0.0000 -0.0000
vn -0.0000 -0.0000 -1.0000
vn 1.0000 -0.0000 -0.0000
vn -0.0000 -0.0000 1.0000
vn -0.0000 -1.0000 -0.0000
vn -0.0000 1.0000 -0.0000
vt 0.250000 0.500000
vt 0.312610 0.500340
vt 0.437500 0.687500
vt 0.250000 0.687500
vt 0.312610 0.687888
vt 0.312500 0.687500
vt 0.312500 0.500000
vt 0.500195 0.500340
vt 0.437500 0.750000
vt 0.312500 0.687500
vt 0.500195 0.687888
vt 0.312500 0.750000
vt 0.437500 0.500000
vt 0.437375 0.500340
vt 0.562500 0.687500
vt 0.437375 0.687888
vt 0.437500 0.687500
vt 0.624960 0.500340
vt 0.500000 0.500000
vt 0.562500 0.750000
vt 0.624960 0.687888
vt 0.500000 0.687500
vt 0.437500 0.750000
vt 0.250000 0.750000
vt 0.125000 0.750000
vt 0.250000 0.875000
vt 0.250000 0.875000
vt 0.125000 0.875000
vt 0.375000 0.750000
vt 0.250000 1.000000
vt 0.375000 0.875000
vt 0.125000 1.000000
vt 0.125000 0.750000
vt 0.250000 0.750000
vt 0.375000 0.875000
vt 0.125000 0.875000
vt 0.250000 0.875000
vt 0.500000 0.750000
vt 0.000000 0.750000
vt 0.375000 1.000000
vt 0.500000 0.875000
vt 0.000000 0.875000
vt 0.250000 1.000000
vt 0.750069 0.500005
vt 0.812522 0.687509
vt 0.750052 0.687516
vt 0.750069 0.687658
vt 0.687499 0.687501
vt 0.812489 0.500003
vt 0.875024 0.500005
vt 0.812522 0.749996
vt 0.812489 0.687516
vt 0.875024 0.687503
vt 0.687499 0.750006
vt 0.687505 0.500003
vt 0.688624 0.500005
vt 0.750005 0.687509
vt 0.687505 0.687516
vt 0.688624 0.687658
vt 0.749995 0.687501
vt 0.812503 0.500005
vt 0.625067 0.500003
vt 0.750005 0.749996
vt 0.812503 0.687503
vt 0.625067 0.687516
vt 0.749995 0.750006
vt 0.562522 0.000008
vt 0.625005 0.187501
vt 0.562500 0.187511
vt 0.562522 0.187661
vt 0.624995 0.187509
vt 0.500001 -0.000001
vt 0.687512 0.000006
vt 0.625005 0.250003
vt 0.500001 0.187511
vt 0.687512 0.187499
vt 0.624995 0.250002
vt 0.625013 0.000008
vt 0.687498 0.187501
vt 0.625067 0.187521
vt 0.625013 0.187661
vt 0.562498 0.187509
vt 0.749994 0.000006
vt 0.687505 0.000008
vt 0.687498 0.250003
vt 0.749994 0.187499
vt 0.687505 0.187521
vt 0.562498 0.250002
vt 0.062500 0.500000
vt 0.125000 0.750000
vt 0.062500 0.687500
vt 0.125000 0.750000
vt -0.000000 0.500000
vt 0.250000 0.500000
vt 0.125000 0.687500
vt -0.000000 0.687500
vt 0.250000 0.687500
vt 0.125000 0.687500
vt 0.125000 0.500000
vt 0.187500 0.750000
vt 0.125000 0.687500
vt 0.062500 0.750000
vt 0.187500 0.500000
vt 0.185937 0.500000
vt 0.187500 0.687500
vt 0.187500 0.687500
vt 0.185937 0.687500
vt 0.062500 0.687500
vt 0.375000 0.000000
vt 0.375000 0.187500
vt 0.375000 0.187500
vt 0.312500 0.250000
vt 0.437500 0.000000
vt 0.375000 0.250000
vt 0.437500 0.187500
vt 0.312500 0.187500
vt 0.312500 -0.000000
vt 0.437500 0.187500
vt 0.312500 0.187500
vt 0.375000 0.250000
vt 0.500000 0.000000
vt 0.250000 0.000000
vt 0.437500 0.250000
vt 0.500000 0.187500
vt 0.250000 0.187500
vt 0.375000 0.187500
s 0
usemtl steve
f 1/1/1 2/4/1 4/10/1 3/7/1
f 3/8/2 4/11/2 8/21/2 7/18/2
f 7/19/3 8/22/3 6/17/3 5/13/3
f 5/14/4 6/16/4 2/5/4 1/2/4
f 3/9/5 7/20/5 5/15/5 1/3/5
f 8/23/6 4/12/6 2/6/6 6/17/6
f 9/24/1 10/27/1 12/31/1 11/29/1
f 11/29/2 12/31/2 16/41/2 15/38/2
f 15/39/3 16/42/3 14/36/3 13/33/3
f 13/34/4 14/37/4 10/28/4 9/25/4
f 11/30/5 15/40/5 13/35/5 9/26/5
f 16/43/6 12/32/6 10/28/6 14/37/6
f 17/44/1 18/46/1 20/52/1 19/49/1
f 19/50/2 20/53/2 24/64/2 23/61/2
f 23/62/3 24/65/3 22/58/3 21/55/3
f 21/56/4 22/59/4 18/47/4 17/44/4
f 19/51/5 23/63/5 21/57/5 17/45/5
f 24/66/6 20/54/6 18/48/6 22/60/6
f 25/67/3 27/72/3 28/75/3 26/69/3
f 27/73/2 31/83/2 32/86/2 28/76/2
f 31/84/1 29/78/1 30/80/1 32/87/1
f 29/78/4 25/67/4 26/70/4 30/81/4
f 27/74/5 25/68/5 29/79/5 31/85/5
f 32/88/6 30/82/6 26/71/6 28/77/6
f 33/89/1 34/91/1 36/96/1 35/93/1
f 35/94/2 36/97/2 40/106/2 39/103/2
f 39/104/3 40/107/3 38/101/3 37/99/3
f 37/99/4 38/101/4 34/91/4 33/89/4
f 35/95/5 39/105/5 37/100/5 33/90/5
f 40/108/6 36/98/6 34/92/6 38/102/6
f 41/109/3 43/113/3 44/115/3 42/111/3
f 43/113/2 47/121/2 48/124/2 44/115/2
f 47/122/1 45/117/1 46/119/1 48/125/1
f 45/117/4 41/109/4 42/111/4 46/119/4
f 43/114/5 41/110/5 45/118/5 47/123/5
f 48/126/6 46/120/6 42/112/6 44/116/6
